# xmcd
#
# Track frame offsets:
#	150
#	14729
#	24766
#	52686
#	66437
#	78806
#	100404
#	118488
#	133236
#	148364
#	161203
#	175850
#	191460
#	203302
#	215419
#	230736
#	248008
#
# Disc length: 3480 seconds
#
# Revision: 1
# Processed by: cddbd v1.5.1PL0 Copyright (c) Steve Scherf et al.
# Submitted via: EasyCDDAExtractor 8.0.0.2
#
DISCID=f30d9611
DTITLE=Various Artist - Show de Bandas - Volume 6
DYEAR=1900
DGENRE=Bandinha
TTITLE0=Terceira Dimensão - Faz Tempo Que Te Tenteio
TTITLE1=Os Atuais - Agarradinho em Você
TTITLE2=Banda Show Céu e Cantos - Encontrando Colegas
TTITLE3=Banda Sul - Baile de Chopp
TTITLE4=Musical JM - Eu Também Já
TTITLE5=Vox 3 - Enchente de Chopp
TTITLE6=Banda Brilha Som - Flávio e Clayton
TTITLE7=Banda Eccos - Na Ilha do Amor
TTITLE8=Grupo Revoar - A Noite é Brincadeira
TTITLE9=Musical Panorama - Comentário das Mulheres
TTITLE10=Sangue Latino - Ela Só Quer Nhá-Nhá
TTITLE11=Os Atuais - Paraguaya
TTITLE12=Terceira Dimensão - Caramba! Que Baile Bom
TTITLE13=Estrela Azul - Ela Chora, Chora
TTITLE14=Cia do Baile - Quando me Enamoro
TTITLE15=Musical Calmon - Itajaí
TTITLE16=Musical JM - Depois Que Bebo Tudo é Miss
EXTD=
EXTT0=
EXTT1=
EXTT2=
EXTT3=
EXTT4=
EXTT5=
EXTT6=
EXTT7=
EXTT8=
EXTT9=
EXTT10=
EXTT11=
EXTT12=
EXTT13=
EXTT14=
EXTT15=
EXTT16=
PLAYORDER=
